# AST/ASF file generated using VICON BodyLanguage
# -----------------------------------------------
:version 1.10
:name VICON
:units
  mass 1.0
  length 0.45
  angle deg
:documentation
   .ast/.asf automatically generated from VICON data using
   VICON BodyBuilder and BodyLanguage model FoxedUp or BRILLIANT.MOD
:root
   order TX TY TZ RX RY RZ
   axis XYZ
   position 0 0 0  
   orientation 0 0 0 
:bonedata
  begin
     id 1 
     name lhipjoint
     direction 0.612567 -0.751349 0.245431 
     length 2.42285 
     axis 0 0 0  XYZ
  end
  begin
     id 2 
     name lfemur
     direction 0.34202 -0.939693 0  
     length 7.11304  
     axis 0 0 20  XYZ
    dof rx ry rz
    limits (-160.0 20.0)
           (-70.0 70.0)
           (-60.0 70.0)
  end
  begin
     id 3 
     name ltibia
     direction 0.34202 -0.939693 0   
     length 7.84529   
     axis 0 0 20   XYZ
    dof rx
    limits (-10.0 170.0)
  end
  begin
     id 4 
     name lfoot
     direction 0.0779239 -0.214094 0.9737   
     length 1.97176   
     axis -90 7.62852e-016 20   XYZ
    dof rx rz
    limits (-45.0 90.0)
           (-70.0 20.0)
  end
  begin
     id 5 
     name ltoes
     direction 1.53565e-011 -4.21709e-011 1   
     length 0.993197   
     axis -90 7.62852e-016 20   XYZ
    dof rx
    limits (-90.0 20.0)
  end
  begin
     id 6 
     name rhipjoint
     direction -0.665722 -0.709315 0.231701   
     length 2.56642  
     axis 0 0 0  XYZ 
  end
  begin
     id 7 
     name rfemur
     direction -0.34202 -0.939693 0   
     length 7.32108   
     axis 0 0 -20   XYZ
    dof rx ry rz
    limits (-160.0 20.0)
           (-70.0 70.0)
           (-70.0 60.0)
  end
  begin
     id 8 
     name rtibia
     direction -0.34202 -0.939693 0   
     length 7.81254   
     axis 0 0 -20   XYZ
    dof rx
    limits (-10.0 170.0)
 end
 begin
     id 9 
     name rfoot
     direction -0.0832806 -0.228812 0.969902   
     length 2.08278  
     axis -90 -7.62852e-016 -20   XYZ
    dof rx rz
    limits (-45.0 90.0)
           (-20.0 70.0)
  end
  begin
     id 10 
     name rtoes
     direction -1.53589e-011 -4.22086e-011 1   
     length 1.04609   
     axis -90 -7.62852e-016 -20   XYZ
    dof rx
    limits (-90.0 20.0)
  end
  begin
     id 11 
     name lowerback
     direction -0.00506013 0.988403 -0.151766   
     length 2.01978   
     axis 0 0 0   XYZ
    dof rx ry rz
    limits (-20.0 45.0)
           (-30.0 30.0)
           (-30.0 30.0)
  end
  begin
     id 12 
     name upperback
     direction -0.00836389 0.99968 0.0238859   
     length 2.01276   
     axis 0 0 0   XYZ
    dof rx ry rz
    limits (-20.0 45.0)
           (-30.0 30.0)
           (-30.0 30.0)
  end
  begin
     id 13 
     name thorax
     direction -0.00684136 0.995386 0.0957043   
     length 2.07303   
     axis 0 0 0   XYZ
    dof rx ry rz
    limits (-20.0 45.0)
           (-30.0 30.0)
           (-30.0 30.0)
  end
  begin
     id 14 
     name lowerneck
     direction -0.0161045 0.999661 0.0204485   
     length 1.91243   
     axis 0 0 0   XYZ
    dof rx ry rz
    limits (-20.0 45.0)
           (-30.0 30.0)
           (-30.0 30.0)
  end
  begin
     id 15 
     name upperneck
     direction 0.0553583 0.990946 -0.122319   
     length 1.91574   
     axis 0 0 0   XYZ
    dof rx ry rz
    limits (-20.0 45.0)
           (-30.0 30.0)
           (-30.0 30.0)
  end
  begin
     id 16
     name head
     direction 0.0180273 0.998839 -0.0446756  
     length 1.92693  
     axis 0 0 0   XYZ
    dof rx ry rz
    limits (-20.0 45.0)
           (-30.0 30.0)
           (-30.0 30.0)
  end
  begin
     id 17 
     name lclavicle
     direction 0.945646 0.319323 -0.0615358  
     length 4.0076  
     axis 0 0 0   XYZ
    dof ry rz
    limits (-20.0 10.0)
           (0.0 20.0)
  end
  begin
     id 18 
     name lhumerus
     direction 1 -4.48967e-011 -2.79996e-027   
     length 5.64147   
     axis 180 -30 -90   XYZ
    dof rx ry rz
    limits (-60.0 90.0)
           (-90.0 90.0)
           (-90.0 90.0)
  end
  begin
     id 19
     name lradius
     direction 1 -4.48976e-011 -9.5122e-027   
     length 2.86444   
     axis 180 -30 -90   XYZ
    dof rx
    limits (-10.0 170.0)
  end
  begin
     id 20
     name lwrist
     direction 1 -4.48983e-011 -1.24047e-026   
     length 1.43222   
     axis 9.05591e-015 90 90   XYZ
    dof ry
    limits (-180.0 0.0)
 end
  begin
     id 21 
     name lhand
     direction 1 -4.4892e-011 -2.48094e-026   
     length 0.722123   
     axis 1.58305e-014 90 90   XYZ
    dof rx rz
    limits (-90.0 90.0)
           (-45.0 45.0)
  end
  begin
     id 22 
     name lfingers
     direction 1 -4.48895e-011 -4.96187e-026   
     length 0.582194   
     axis 3.1661e-014 90 90   XYZ
    dof rx
    limits (0.0 90.0)
  end
  begin
     id 23
     name lthumb
     direction 0.707107 -6.34961e-011 0.707107   
     length 0.835918   
     axis -90 45 2.85299e-015   XYZ
    dof rx rz
    limits (-45.0 45.0)
           (-45.0 45.0)
  end
  begin
     id 24 
     name rclavicle
     direction -0.932635 0.324218 -0.15835   
     length 3.65819  
     axis 0 0 0   XYZ 
    dof ry rz
    limits (-10.0 20.0)
           (-20.0 0.0)
  end
  begin
     id 25 
     name rhumerus
     direction -1 -4.48965e-011 -4.02296e-027  
     length 5.44729   
     axis 180 30 90   XYZ
    dof rx ry rz
    limits (-90.0 60.0)
           (-90.0 90.0)
           (-90.0 90.0)
  end
  begin
     id 26 
     name rradius
     direction -1 -4.48957e-011 -8.81087e-027   
     length 3.08821   
     axis 180 30 90   XYZ
    dof rx
    limits (-10.0 170.0)
  end
  begin
     id 27 
     name rwrist
     direction -1 -4.49015e-011 -1.24047e-026   
     length 1.5441   
     axis 9.05591e-015 -90 -90   XYZ
    dof ry
    limits (-180.0 0.0)
  end
  begin
     id 28
     name rhand
     direction -1 -4.4891e-011 -2.48094e-026   
     length 0.821049   
     axis 1.58305e-014 -90 -90   XYZ
    dof rx rz
    limits (-90.0 90.0)
           (-45.0 45.0)
  end
  begin
     id 29
     name rfingers
     direction -1 -4.48985e-011 -4.96187e-026   
     length 0.661951   
     axis 3.1661e-014 -90 -90   XYZ
    dof rx
    limits (0.0 90.0)
  end
  begin
     id 30
     name rthumb
     direction -0.707107 -6.34906e-011 0.707107   
     length 0.950433   
     axis -90 -45 -2.85299e-015   XYZ
    dof rx rz
    limits (-45.0 45.0)
           (-45.0 45.0)
  end
:hierarchy
  begin
    root lhipjoint rhipjoint lowerback
    lhipjoint lfemur
    lfemur ltibia
    ltibia lfoot
    lfoot ltoes
    rhipjoint rfemur
    rfemur rtibia
    rtibia rfoot
    rfoot rtoes
    lowerback upperback
    upperback thorax
    thorax lowerneck lclavicle rclavicle
    lowerneck upperneck
    upperneck head
    lclavicle lhumerus
    lhumerus lradius
    lradius lwrist
    lwrist lhand lthumb
    lhand lfingers
    rclavicle rhumerus
    rhumerus rradius
    rradius rwrist
    rwrist rhand rthumb
    rhand rfingers
  end

#!OML:ASF F:\VICON\USERDATA\INSTALL\rory3\rory3.ASF
:FULLY-SPECIFIED
:DEGREES
1317
root 3.653 17.5541 0.128589 9.34565 94.5159 11.197
lowerback 5.55101 -0.172453 2.95994
upperback 0.288788 -0.075904 -1.47311
thorax -2.82226 -0.0797715 -3.17909
lowerneck -7.96646 -3.83408 -4.61283
upperneck 8.05304 -4.52916 -0.375398
head 4.19275 -2.39113 0.413431
rclavicle -1.19333e-014 1.59028e-015
rhumerus -23.667 -7.9395 -31.0742
rradius 72.121
rwrist 20.2779
rhand 11.4839 4.2578
rfingers 7.12502
rthumb 36.5324 -21.9261
lclavicle -1.19333e-014 1.59028e-015
lhumerus -16.9785 12.123 49.5369
lradius 74.5295
lwrist 27.5253
lhand -24.664 17.1579
lfingers 7.12502
lthumb 1.83607 47.1298
rfemur 2.01891 -0.353059 20.2174
rtibia 18.8364
rfoot -23.7674 -10.1681
rtoes -8.06773
lfemur -2.33144 0.0714351 -15.2019
ltibia 18.687
lfoot -13.648 -5.94479
ltoes -5.05333
1318
root 3.65619 17.554 0.13654 9.21338 94.7626 11.0571
lowerback 5.48228 -0.176625 2.92378
upperback 0.307022 -0.0887508 -1.62221
thorax -2.76613 -0.0848436 -3.31212
lowerneck -8.07406 -3.81792 -4.64121
upperneck 8.16417 -4.49005 -0.431981
head 4.25284 -2.37661 0.39869
rclavicle -1.32937e-014 -1.78906e-014
rhumerus -22.8622 -7.19884 -30.6554
rradius 71.8501
rwrist 20.2761
rhand 11.5061 4.34063
rfingers 7.12502
rthumb 36.5534 -21.838
lclavicle -1.32937e-014 -1.78906e-014
lhumerus -16.8334 12.1408 49.4116
lradius 74.9252
lwrist 27.8126
lhand -24.8437 17.5524
lfingers 7.12502
lthumb 1.66253 47.5257
rfemur 2.0902 -0.485394 20.2919
rtibia 18.7789
rfoot -23.8885 -10.1976
rtoes -7.83125
lfemur -2.36878 0.0121912 -15.1222
ltibia 18.6571
lfoot -13.5356 -6.13615
ltoes -4.72006
1319
root 3.65874 17.5543 0.143525 9.18167 94.9873 10.9949
lowerback 5.41207 -0.178888 2.90514
upperback 0.314266 -0.0978903 -1.77883
thorax -2.72036 -0.0886195 -3.46327
lowerneck -8.18123 -3.78597 -4.70065
upperneck 8.26843 -4.42975 -0.450184
head 4.31222 -2.35083 0.403843
rclavicle 3.19298e-015 -3.97569e-015
rhumerus -22.0809 -6.51894 -30.2797
rradius 71.61
rwrist 20.4186
rhand 11.518 4.63814
rfingers 7.12502
rthumb 36.5646 -21.5376
lclavicle 3.19298e-015 -3.97569e-015
lhumerus -16.5893 12.1408 49.2883
lradius 75.1083
lwrist 28.1762
lhand -25.1281 17.7807
lfingers 7.12502
lthumb 1.38787 47.7559
rfemur 2.14832 -0.596904 20.3673
rtibia 18.6856
rfoot -23.9543 -10.2934
rtoes -7.73542
lfemur -2.46643 -0.00584619 -15.044
ltibia 18.6966
lfoot -13.5163 -6.33407
ltoes -4.92734
1320
root 3.65951 17.5545 0.15056 9.15352 95.2151 10.9349
lowerback 5.38236 -0.140592 2.90058
upperback 0.295743 -0.0508694 -1.92976
thorax -2.71926 -0.0657544 -3.62113
lowerneck -8.23302 -3.81937 -4.80814
upperneck 8.37513 -4.45359 -0.467627
head 4.36515 -2.368 0.413156
rclavicle 1.0312e-014 -1.51076e-014
rhumerus -21.4368 -5.77315 -29.8076
rradius 71.4139
rwrist 20.5889
rhand 11.6096 4.73118
rfingers 7.12502
rthumb 36.6514 -21.4226
lclavicle 1.0312e-014 -1.51076e-014
lhumerus -16.3756 11.9908 49.2654
lradius 75.3434
lwrist 28.7127
lhand -25.3512 17.9191
lfingers 7.12502
lthumb 1.17237 47.8956
rfemur 2.20049 -0.750648 20.4398
rtibia 18.5639
rfoot -23.9989 -10.382
rtoes -7.51667
lfemur -2.61544 -0.0373281 -14.9615
ltibia 18.8163
lfoot -13.4616 -6.56442
ltoes -4.90074
1321
root 3.65721 17.5522 0.158326 10.6913 95.4776 12.467
lowerback 5.42137 -0.0951935 3.06188
upperback 0.249111 0.0178539 -2.03509
thorax -2.78366 -0.0359846 -3.82784
lowerneck -8.16164 -3.84725 -4.86479
upperneck 8.42844 -4.47484 -0.569036
head 4.36944 -2.38529 0.388336
rclavicle 1.48095e-014 -2.14687e-014
rhumerus -20.8617 -4.96667 -29.3045
rradius 71.2437
rwrist 20.6828
rhand 11.749 4.71275
rfingers 7.12502
rthumb 36.7832 -21.4074
lclavicle 1.48095e-014 -2.14687e-014
lhumerus -16.2348 11.819 49.2965
lradius 75.6127
lwrist 29.2102
lhand -25.3579 18.1972
lfingers 7.12502
lthumb 1.16589 48.1737
rfemur 2.25604 -0.871812 20.6925
rtibia 18.4569
rfoot -24.0291 -10.4849
rtoes -7.33248
lfemur -2.76427 -0.138939 -14.7137
ltibia 18.9478
lfoot -13.4362 -6.71997
ltoes -4.58719
1322
root 3.65538 17.55 0.167721 11.3261 95.723 13.1062
lowerback 5.48477 -0.0495208 3.11483
upperback 0.204534 0.0807556 -2.16862
thorax -2.85965 -0.00798165 -4.0026
lowerneck -8.05468 -3.87462 -4.9139
upperneck 8.42925 -4.50663 -0.606501
head 4.34938 -2.40388 0.384339
rclavicle 2.73329e-015 1.03368e-014
rhumerus -20.3135 -4.15594 -28.8653
rradius 71.0655
rwrist 20.7444
rhand 11.8641 4.68634
rfingers 7.12502
rthumb 36.8922 -21.4059
lclavicle 2.73329e-015 1.03368e-014
lhumerus -16.1206 11.7628 49.2868
lradius 75.8685
lwrist 29.5522
lhand -25.2236 18.5919
lfingers 7.12502
lthumb 1.29562 48.5677
rfemur 2.33041 -0.963268 20.8719
rtibia 18.3796
rfoot -24.111 -10.581
rtoes -6.9951
lfemur -2.88527 -0.282372 -14.5554
ltibia 19.0785
lfoot -13.429 -6.80113
ltoes -4.28593
